<svg width="32" height="32" viewBox="0 0 32 32" fill="none" xmlns="http://www.w3.org/2000/svg">
<rect width="32" height="32" fill="white"/>
<g clip-path="url(#clip0_77_311)">
<path d="M25.4019 22.5327L21.1439 11.2752C20.6189 9.93362 20.0356 8.27124 19.6565 7.16299C19.1024 5.50061 18.6066 5.15063 16.1276 5.15063C13.6486 5.15063 13.007 5.44228 12.4529 7.13383C12.1029 8.27124 11.5196 9.93362 10.9946 11.2752L6.73661 22.5327C5.97833 24.5451 4.22845 24.0784 4.22845 25.4783C4.22845 25.9741 4.60759 26.3533 5.24921 26.3533C6.24081 26.3533 6.88243 26.2658 7.75737 26.2658C8.60314 26.2658 9.5364 26.3533 10.528 26.3533C11.4904 26.3533 12.0446 26.0033 12.0446 25.3617C12.0446 23.9909 9.91554 24.5451 9.91554 23.0577C9.91554 22.7952 10.0614 22.3286 10.3238 21.6286L10.6155 20.8412C10.8488 20.1704 11.053 19.8204 11.8696 19.8204H17.0609C17.8775 19.8204 18.0816 20.1704 18.3149 20.8412L18.6066 21.6869C18.8107 22.2411 18.9274 22.7369 18.9274 23.0577C18.9274 24.5451 16.8859 23.9909 16.8859 25.3617C16.8859 26.0033 17.4692 26.3533 18.4024 26.3533C19.4232 26.3533 20.6773 26.2658 22.6896 26.2658C24.702 26.2658 25.7227 26.3533 26.7143 26.3533C27.3559 26.3533 27.7351 25.9741 27.7351 25.4783C27.7351 24.1368 26.131 24.4576 25.4019 22.5327ZM16.1276 17.0498H12.8612C12.1612 17.0498 12.1904 16.6123 12.3362 16.2332L14.4944 10.4877L16.6234 16.2332C16.7692 16.6123 16.8567 17.0498 16.1276 17.0498Z" fill="black"/>
</g>
<defs>
<clipPath id="clip0_77_311">
<rect width="24" height="21.5696" fill="white" transform="translate(4 5)"/>
</clipPath>
</defs>
</svg>
